PathFileType	4	(X/Y/Z)	Patient4_TMGait_0pt5_01_left_08.trc.trc
DataRate	CameraRate	NumFrames	NumMarkers	Units	OrigDataRate	OrigDataStartFrame	OrigNumFrames
75.675675675676	75.675675675676	6	33	mm	75.675675675676	18	       141
Frame#	Time	L.ASIS			Sacral			L.Shoulder			Chest			R.Shoulder			Neck			R.ASIS			R.Thigh.Superior			R.Thigh.Lateral			R.Thigh.Inferior			R.Patella			L.Thigh.Superior			L.Thigh.Lateral			L.Thigh.Inferior			L.Patella			L.Shank.Superior			L.Shank.Lateral			L.Shank.Inferior			R.Shank.Superior			R.Shank.Lateral			R.Shank.Inferior			R.Heel			R.Midfoot.Superior			R.Midfoot.Lateral			R.Toe			L.Heel			L.Midfoot.Lateral			L.Midfoot.Superior			L.Toe			L.Elbow			L.Wrist			R.Elbow			R.Wrist			
		X1	Y1	Z1	X2	Y2	Z2	X3	Y3	Z3	X4	Y4	Z4	X5	Y5	Z5	X6	Y6	Z6	X7	Y7	Z7	X8	Y8	Z8	X9	Y9	Z9	X10	Y10	Z10	X11	Y11	Z11	X12	Y12	Z12	X13	Y13	Z13	X14	Y14	Z14	X15	Y15	Z15	X16	Y16	Z16	X17	Y17	Z17	X18	Y18	Z18	X19	Y19	Z19	X20	Y20	Z20	X21	Y21	Z21	X22	Y22	Z22	X23	Y23	Z23	X24	Y24	Z24	X25	Y25	Z25	X26	Y26	Z26	X27	Y27	Z27	X28	Y28	Z28	X29	Y29	Z29	X30	Y30	Z30	X31	Y31	Z31	X32	Y32	Z32	X33	Y33	Z33	

18	10.994642857143	695.713769931873	967.143687141984	343.210822107706	501.831866913429	1005.922113030401	524.900595347437	666.181328489609	1449.674507052600	365.641273001882	784.229152105641	1357.876361927916	504.078734849783	725.579303006479	1415.043793358496	694.258179237273	691.629522724045	1493.327815041953	520.214211882839	737.231377601676	935.041123540895	614.989652025736	747.039955511832	728.580737331444	579.616976232540	656.613713848178	627.915272018941	645.599835343220	718.218375039614	567.603349360821	560.883598025357	704.635386811258	478.538820255593	565.508691268066	769.766441528498	777.835928272248	359.069546781477	711.245502771048	650.332044111741	287.903712472829	815.806670577235	588.089450176407	342.589858315061	842.872364325118	525.819700177172	339.685834205057	830.499502084833	456.268605899444	330.427278723421	772.043615028494	323.365717068628	278.980917813528	865.964163197465	229.612003422878	331.635910149829	665.836631428475	393.781056156748	572.083743839505	584.031369961510	300.022102684198	636.696396763887	608.003564935971	201.828316450055	569.819384756279	451.474539833621	46.025807184503	546.218179885992	626.516661379809	96.781639068338	573.237700387497	538.734105012227	36.976715359331	615.146958700398	746.124703988337	38.317563428267	593.796184965662	790.763496218422	45.621760676688	366.570499998205	867.396840970860	53.499789645047	289.237963510797	934.109013439272	133.874079269108	310.835150090075	1069.900985651229	109.251432905182	291.290178017052	538.184471527033	1134.534667704627	219.965152497766	626.142647634376	886.969060953710	192.609794859818	790.749535055651	1069.342478192153	784.945441441308	1017.849360006518	960.210211930009	731.820390723070	
19	11.007857142857	695.885043883490	965.851140314239	341.387116236951	501.685177410502	1004.604357551047	522.794169814072	664.710396973806	1448.387390206479	362.852540792465	782.873080481608	1357.236879779510	501.639880586306	723.806159444311	1414.608951640468	691.645383938520	689.865646198836	1492.393455148734	517.416918144776	736.970983208570	934.162910284167	613.332289215299	745.157443346872	727.191202597757	578.191458130585	653.650390330593	627.246599932331	644.371338167346	714.473167213402	566.274221940357	559.708636736125	699.996886936526	477.356289254721	564.170108470637	770.588057694155	776.951843777948	358.182053206776	712.456876586405	648.958432503072	287.338395538575	816.758919075242	587.109056536763	342.352738219143	843.448098779667	524.146112267479	339.790172322940	830.387699045890	453.994119982170	330.856715698005	770.232486038976	321.822200471730	279.783482623282	862.517855521822	226.998728768847	333.118895462406	660.769436843015	392.788841289365	570.981409210674	578.693959758808	299.585261549542	636.031331275064	601.809871059967	201.195297388182	569.193873324068	444.722879785316	45.652777380368	546.135151372397	619.633504469982	96.646444976007	573.065140973539	531.948980628290	36.818292844429	615.101871622515	739.313547327100	38.386681251216	593.795979079340	784.437592389227	44.880529054493	368.244272148721	861.470232192697	51.153810001389	291.213519570494	929.632637560734	130.012680645465	313.055329723362	1064.909591615508	102.615058444197	294.088437650260	537.367333816319	1132.828193862719	217.662664325074	624.797844506991	885.051345592789	190.287160594130	785.984419068050	1068.573817910892	783.796396983407	1011.170713047217	954.554345077786	732.213543399477	
20	11.021071428571	696.397016243565	964.387785723873	339.530270586391	501.775829841180	1003.144334900215	520.538362111451	663.237372694023	1446.934894181499	359.744669139791	781.530540381596	1356.597729649970	498.972113623614	721.920228625196	1414.220873570391	688.751050492087	687.999490564085	1491.394561949816	514.278692712833	736.935793698890	933.238160875049	611.642676825060	743.607054279405	725.710007323649	576.920672256917	650.886311118478	626.516128937398	643.132239978423	711.011830096072	564.870318378401	558.586213191393	695.599271008217	476.064703893804	562.812108095589	771.644726097582	775.719778916522	357.406197214422	713.722202179812	647.349081680268	286.863623611870	817.730165717645	585.835900909045	342.267446835166	843.832918737706	521.978759029391	340.088480750413	829.904808130507	451.174224402441	331.408365159046	767.520305733605	319.958121578666	280.737410380468	857.805255459085	223.741493925759	334.788213126705	655.892562814868	391.730101131942	569.872312027808	573.479762411434	299.121993408548	635.339080569245	595.683728569959	200.523333706738	568.571222607406	437.981604253869	45.293936477083	546.061644156062	612.763843405589	96.517238122354	572.904285894809	525.171744822555	36.659331013239	615.066021802936	732.508494853265	38.449695982991	593.803447291432	776.224395965043	43.779484514472	370.018585821354	853.602025760894	48.405337939915	293.225181694953	923.438312744098	125.452317294543	315.504700764417	1058.104657511905	94.929984082016	296.917877217902	536.709721437584	1130.845917042444	215.140947898912	623.908116344153	882.958457792001	187.889102891760	780.844360222129	1067.884830386592	782.626353720130	1003.803774382761	948.452411204862	732.901106100466	
21	11.034285714286	697.238681466764	962.788434279684	337.662130307065	502.087174931294	1001.571923129420	518.132669357552	661.794440670754	1445.318364987634	356.321494609436	780.225078021814	1355.969446994859	496.087636412963	719.935096371999	1413.898988713326	685.582228515512	686.054093231538	1490.346827671973	510.794600794780	737.118743963480	932.255963504272	609.925712441930	742.414203340348	724.143422844878	575.747441356408	648.396626282387	625.710136468791	641.839057776238	707.902560674731	563.395150795035	557.448687745464	691.528857472230	474.643366237042	561.384615828444	772.904996062137	774.148313128178	356.728937784540	714.948782161805	645.541264982232	286.470768776920	818.665481053647	584.297729931298	342.305103365408	843.968334999902	519.409328431668	340.571008242595	829.072715439140	447.951441866502	332.036178901049	764.120704295925	317.854102990712	281.764651315698	852.165043930142	220.052643872938	336.548844997513	651.273297252063	390.594966251104	568.713180301180	568.444400384286	298.638407884549	634.592467147450	589.655085156627	199.814272855689	567.925296636431	431.253972633228	44.969951392316	545.993251620508	605.914998380233	96.399544677856	572.743435926597	518.408902596333	36.515448368029	615.034151952938	725.720484642257	38.499145375349	593.820429650665	766.690077186843	42.457071753316	371.787476078918	844.349722217930	45.478109459674	295.162474551987	915.977099355244	120.495733763057	318.072931374295	1049.969456269476	86.663594270012	299.672418370805	536.239391325731	1128.589155732860	212.402879108950	623.450138290556	880.671525208629	185.411085455075	775.356474512393	1067.296331412185	781.399727784132	995.724838052151	941.945468368128	733.833835660748	
22	11.047500000000	698.372306963486	961.112088709377	335.797008047101	502.586725560963	999.933482566140	515.586376240950	660.409240271348	1443.556716106038	352.599748514021	778.979007511938	1355.370877877983	493.002464816988	717.878263889680	1413.671916273428	682.154533066681	684.061742430358	1489.278582395870	506.971774969082	737.501363451642	931.220028651630	608.177986018878	741.589010354510	722.515147651419	574.591128831514	646.259917770554	624.824485705552	640.446151215301	705.215306556658	561.864208245238	556.223124759151	687.883002333004	473.080588176644	559.844507418878	774.340478563633	772.303786801852	356.122861992602	716.093899145764	643.614408421230	286.135017182348	819.554284986924	582.572893403186	342.423815009257	843.857906995156	516.579779250253	341.201854809861	827.969167564869	444.510970506605	332.685448916130	760.308735758838	315.632929577654	282.767424172049	845.978030235489	216.179211544079	338.300029812984	646.980912640508	389.382180544937	567.463272685021	563.645171738849	298.153787428869	633.766952627323	583.758169544042	199.082584069498	567.234074077045	424.543636879408	44.720933305837	545.927838535268	599.101037152167	96.303460631862	572.573414331075	511.668575605958	36.411521703758	615.001925081054	718.961820021919	38.526309096180	593.847146666240	756.426429595231	41.069509447261	373.453341510126	834.298475030348	42.607054861205	296.924202757260	907.727619852869	115.477949316779	320.634380549138	1041.018867280648	78.324778582775	302.235704054820	535.996986374903	1126.069822671058	209.462969072866	623.395140008823	878.177924044953	182.849567357689	769.547099028455	1066.837044574923	780.086774278828	986.898982904631	935.085277962403	734.960247665623	
23	11.060714285714	699.736268697015	959.439862818935	333.937289614183	503.230002891467	998.289456057143	512.919625684981	659.101517442380	1441.689128291120	348.610431347226	777.810901050202	1354.829680946584	489.736392356353	715.790402315606	1413.576878695270	678.492325744377	682.061632998250	1488.230582559307	502.832404399294	738.054059413421	930.152601394800	606.387672483736	741.126830098487	720.867131182495	573.362020168203	644.550217392625	623.867013565536	638.911704472361	703.020265972709	560.305901556302	554.843007089271	684.768279412386	471.375638746076	558.164330802671	775.923536282448	770.305057400134	355.548893557601	717.168313983281	641.683977845408	285.814491451034	820.421811041975	580.779354899680	342.573111353906	843.560179748324	513.668074361273	341.924107832443	826.713579468404	441.060288408981	333.300790074537	756.392173791082	313.443494737766	283.631693422142	839.625413135789	212.374143507019	339.944196682709	643.085480326766	388.100889569262	566.091513059519	559.138627680842	297.702324731304	632.843811164889	578.031961312531	198.357205132455	566.483637457102	417.855630462218	44.609551151687	545.866177443335	592.344817173636	96.243442644118	572.389348327024	504.960737556447	36.383031106100	614.966709625049	712.245558839912	38.522486670951	593.881837585003	745.992847084160	39.762975700321	374.930647006290	824.006786139205	40.003457954605	298.426531975603	899.147796138445	110.727608885394	323.057806868700	1031.749809651810	70.415042544706	304.497537218826	536.032143092648	1123.315242306068	206.348143212073	623.711042438106	875.478152381979	180.203683920088	763.443128289067	1066.544671824564	778.664655763463	977.282701493048	927.935216419722	736.230217064995	
